HIERARCHY
ROOT Hips
{
	OFFSET -3.958830 18.904000 13.208200
	CHANNELS 6 Xposition Yposition Zposition Zrotation Yrotation Xrotation 
	JOINT LHipJoint
	{
		OFFSET 0.000000 0.000000 0.000000
		CHANNELS 3 Zrotation Yrotation Xrotation
		JOINT LeftUpLeg
		{
			OFFSET 1.800000 -1.400000 0.085000
			CHANNELS 3 Zrotation Yrotation Xrotation
			JOINT LeftLeg
			{
				OFFSET 2.215000 -6.000000 0.000000
				CHANNELS 3 Zrotation Yrotation Xrotation
				JOINT LeftFoot
				{
					OFFSET 2.500000 -6.900000 0.000000
					CHANNELS 3 Zrotation Yrotation Xrotation
					JOINT LeftToeBase
					{
						OFFSET 0.200000 -0.500000 1.950000
						CHANNELS 3 Zrotation Yrotation Xrotation
						End Site
						{
							OFFSET 0.000000 0.000000 0.000000
						}
					}
				}
			}
		}
	}
	JOINT RHipJoint
	{
		OFFSET 0.000000 0.000000 0.000000
		CHANNELS 3 Zrotation Yrotation Xrotation
		JOINT RightUpLeg
		{
			OFFSET -1.800000 -1.400000 0.085000
			CHANNELS 3 Zrotation Yrotation Xrotation
			JOINT RightLeg
			{
				OFFSET -2.215000 -6.000000 0.000000
				CHANNELS 3 Zrotation Yrotation Xrotation
				JOINT RightFoot
				{
					OFFSET -2.500000 -6.900000 0.000000
					CHANNELS 3 Zrotation Yrotation Xrotation
					JOINT RightToeBase
					{
						OFFSET -0.200000 -0.500000 1.950000
						CHANNELS 3 Zrotation Yrotation Xrotation
						End Site
						{
							OFFSET 0.000000 0.000000 0.000000
						}
					}
				}
			}
		}
	}
	JOINT LowerBack
	{
		OFFSET 0.000000 0.000000 0.000000
		CHANNELS 3 Zrotation Yrotation Xrotation
		JOINT Spine
		{
			OFFSET -0.087000 1.940000 -0.288900
			CHANNELS 3 Zrotation Yrotation Xrotation
			JOINT Spine1
			{
				OFFSET 0.000000 1.950000 0.060000
				CHANNELS 3 Zrotation Yrotation Xrotation
				JOINT Neck
				{
					OFFSET 0.000000 0.000000 0.000000
					CHANNELS 3 Zrotation Yrotation Xrotation
					JOINT Neck1
					{
						OFFSET 0.000000 1.600000 0.340000
						CHANNELS 3 Zrotation Yrotation Xrotation
						JOINT Head
						{
							OFFSET 0.000000 1.667000 -0.240000
							CHANNELS 3 Zrotation Yrotation Xrotation
							End Site
							{
								OFFSET 0.000000 0.000000 0.000000
							}
						}
					}
				}
				JOINT LeftShoulder
				{
					OFFSET 0.000000 0.000000 0.000000
					CHANNELS 3 Zrotation Yrotation Xrotation
					JOINT LeftArm
					{
						OFFSET 2.700000 1.550000 -0.730000
						CHANNELS 3 Zrotation Yrotation Xrotation
						JOINT LeftForeArm
						{
							OFFSET 5.450000 0.000000 0.000000
							CHANNELS 3 Zrotation Yrotation Xrotation
							JOINT LeftHand
							{
								OFFSET 3.450000 0.000000 0.000000
								CHANNELS 3 Zrotation Yrotation Xrotation
								JOINT LeftHandIndex1
								{
									OFFSET 0.750000 0.000000 0.000000
									CHANNELS 3 Zrotation Yrotation Xrotation
									End Site
									{
										OFFSET 0.000000 0.000000 0.000000
									}
								}
							}
						}
					}
				}
				JOINT RightShoulder
				{
					OFFSET 0.000000 0.000000 0.000000
					CHANNELS 3 Zrotation Yrotation Xrotation
					JOINT RightArm
					{
						OFFSET -2.700000 1.550000 -0.730000
						CHANNELS 3 Zrotation Yrotation Xrotation
						JOINT RightForeArm
						{
							OFFSET -5.450000 0.000000 0.000000
							CHANNELS 3 Zrotation Yrotation Xrotation
							JOINT RightHand
							{
								OFFSET -3.450000 0.000000 0.000000
								CHANNELS 3 Zrotation Yrotation Xrotation
								JOINT RightHandIndex1
								{
									OFFSET -0.750000 0.000000 0.000000
									CHANNELS 3 Zrotation Yrotation Xrotation
									End Site
									{
										OFFSET 0.000000 0.000000 0.000000
									}
								}
							}
						}
					}
				}
			}
		}
	}
}
MOTION
Frames: 7
Frame Time: 0.016667
-0.229670 17.273640 -3.485420 0.619113 -20.200766 3.313208 -15.352427 13.956396 3.031795 9.152342 -0.790117 -6.847612 -6.019070 4.600953 2.314649 0.166066 3.969057 3.272341 -0.123410 -0.173910 -0.091010 18.105403 -10.210727 2.171291 -11.359369 0.605208 -19.873159 -1.770351 -2.261610 7.890818 0.229645 -2.187911 3.646077 -0.091590 0.210100 -0.000210 -2.914663 -4.123625 -6.698559 5.578893 -6.398390 2.094856 -3.020655 -6.166576 5.830039 0.706287 -8.308576 -10.063839 -20.192856 14.869280 32.865622 -2.017170 12.042070 5.842120 -14.536247 -4.808364 5.315504 -70.121898 -8.438710 -3.369940 -5.913581 -29.177894 -0.734534 -3.769984 3.099551 -0.009920 0.158710 -0.148220 0.014320 13.666846 8.961033 4.431007 73.587349 6.119729 -8.542597 1.757656 19.365044 -1.506074 2.635434 -1.294065 -0.111590 0.018540 0.081000 -0.027820 
-0.234740 17.275480 -3.486800 0.717407 -20.706087 3.545121 -15.365101 13.964620 3.019515 8.867575 -0.797765 -6.961649 -5.826414 4.554405 2.340078 0.159867 3.932858 3.283349 -0.124310 -0.169150 -0.098610 18.097057 -10.170195 2.195955 -11.482283 0.640106 -20.055662 -1.518277 -2.254288 7.475295 0.234809 -2.177476 3.652750 -0.088260 0.216200 -0.001470 -2.886682 -4.185623 -6.692640 5.363664 -6.491246 2.080384 -2.901738 -6.266070 5.584037 0.642375 -8.428123 -9.965927 -20.232533 15.231839 31.996915 -1.790990 12.358690 5.594560 -13.984125 -4.262901 5.227999 -70.184577 -7.894810 -3.441431 -5.486918 -27.821816 -0.794641 -3.785569 3.093015 -0.015180 0.162840 -0.153480 0.014740 13.279141 8.507287 4.237792 73.382289 5.990825 -8.462660 1.749073 18.459405 -1.450274 2.643486 -1.290812 -0.111560 0.019600 0.084070 -0.025750 
-0.245560 17.284850 -3.492520 0.621155 -21.517639 3.973876 -15.366395 13.967059 2.995230 8.706916 -0.852407 -7.375887 -5.570147 4.501625 2.519774 0.150220 3.870317 3.307100 -0.119210 -0.157780 -0.099810 18.098492 -10.120249 2.249958 -11.307505 0.750526 -20.287866 -1.076028 -2.234521 6.852191 0.233330 -2.147460 3.669186 -0.083280 0.220250 -0.005370 -2.890973 -4.233504 -6.692020 5.472195 -6.685590 2.221548 -2.884125 -6.475688 4.942855 0.583500 -8.652740 -9.685988 -20.419067 15.582372 30.865660 -1.722040 12.717350 5.097210 -13.698267 -3.185023 4.898232 -69.730321 -6.724732 -3.625980 -4.884189 -25.048651 -0.820214 -3.805623 3.064815 -0.014440 0.161190 -0.150840 0.023070 13.130515 7.563074 3.885455 73.024992 5.503409 -8.606590 1.619966 17.391190 -1.403951 2.658377 -1.276992 -0.112710 0.027860 0.077290 -0.021950 
-0.257950 17.294780 -3.497760 0.405423 -22.534957 4.382962 -15.353570 13.956462 2.968844 8.717826 -0.896861 -7.699756 -5.401811 4.487249 2.762005 0.141781 3.828613 3.319166 -0.118680 -0.153490 -0.097740 18.110832 -10.077775 2.320143 -11.085009 0.886782 -20.467282 -0.379196 -2.250545 6.184435 0.233077 -2.128083 3.679249 -0.082160 0.217850 -0.009170 -2.934335 -4.234187 -6.704669 5.928209 -6.783371 2.438096 -2.890623 -6.576031 4.230509 0.541155 -8.967843 -9.525523 -20.872139 15.908676 29.824111 -1.981160 13.190070 4.645790 -13.680499 -2.524416 4.685771 -68.386499 -5.355864 -3.737249 -4.609271 -21.787141 -0.739950 -3.830172 3.039028 -0.013590 0.158950 -0.148930 0.022850 13.213996 7.124938 3.649280 71.932657 5.057817 -8.398058 1.845703 15.215858 -1.229079 2.687385 -1.262872 -0.113750 0.030420 0.074760 -0.022990 
-0.270540 17.301450 -3.508260 0.354466 -23.260686 4.635459 -15.350910 13.976128 2.967338 8.751400 -0.957091 -8.023546 -5.264996 4.459993 2.894012 0.134339 3.788250 3.326659 -0.115910 -0.152010 -0.092710 18.108865 -10.044451 2.358594 -10.922868 0.971327 -20.672362 -0.062172 -2.247064 5.940437 0.229039 -2.092535 3.689098 -0.085020 0.206830 -0.015490 -2.932442 -4.303538 -6.732885 5.957519 -7.070908 2.762081 -3.094546 -6.844991 3.543486 0.567019 -9.086863 -9.480122 -21.101990 16.336155 29.428631 -1.720490 13.564290 4.375050 -13.800395 -1.994605 4.530992 -66.359723 -3.800111 -3.866606 -4.536742 -18.458636 -0.616814 -3.839648 3.018518 0.001090 0.143930 -0.139910 0.021480 13.330426 6.610336 3.542564 71.534119 4.266962 -9.088151 1.109378 15.423016 -1.313701 2.691555 -1.245254 -0.115650 0.030360 0.071250 -0.027120 
-0.275530 17.306980 -3.511930 0.364689 -23.696949 4.682558 -15.337878 14.028524 2.976944 8.672880 -1.001070 -8.339280 -5.035446 4.427795 3.115905 0.133474 3.722399 3.338454 -0.109860 -0.147240 -0.084300 18.106669 -10.039785 2.380350 -11.055643 0.965979 -20.820170 0.357437 -2.327342 6.129991 0.216353 -2.064469 3.694793 -0.095100 0.182400 -0.024480 -2.937537 -4.397782 -6.778820 6.185169 -7.437601 3.267254 -3.395915 -7.170905 2.680135 0.732786 -9.285567 -9.637103 -21.862825 16.812646 29.686750 -1.412160 13.816760 4.182560 -14.220963 -1.741817 4.473183 -64.457574 -2.174107 -4.075242 -4.352330 -15.288804 -0.538566 -3.828976 2.995199 0.027070 0.114250 -0.117610 0.020110 13.490121 6.399556 3.618543 70.821129 3.113490 -9.837676 0.605752 15.096699 -1.306934 2.708669 -1.215302 -0.110540 0.028720 0.063230 -0.030040 
-0.281790 17.298670 -3.502360 0.347609 -24.109994 4.791566 -15.318712 14.087311 2.978448 8.492544 -1.026296 -8.614126 -4.700458 4.389324 3.414533 0.129343 3.662356 3.351572 -0.112680 -0.146330 -0.097010 18.112202 -10.057482 2.381590 -11.173838 0.972374 -21.143170 0.683102 -2.443039 6.855576 0.217422 -2.050391 3.696205 -0.101350 0.182150 -0.027860 -2.964207 -4.470581 -6.786300 6.605457 -7.692589 3.679223 -3.605147 -7.380727 1.791814 0.787304 -9.585978 -9.730495 -22.669987 17.526143 29.077334 -0.737540 14.097570 4.142800 -14.330796 -1.289219 4.376282 -63.075054 -0.782954 -4.023307 -4.263154 -11.688061 -0.456352 -3.845959 2.983376 0.035780 0.102290 -0.111930 0.022240 13.561403 6.050148 3.610974 69.699864 1.981470 -10.225662 0.683712 13.894227 -1.186731 2.730328 -1.192634 -0.107480 0.029300 0.066560 -0.024300 
